<mxfile host="65bd71144e">
    <diagram id="iYqHfR39sjbZLMEoolMR" name="Page-1">
        <mxGraphModel dx="800" dy="474" grid="1" gridSize="10" guides="1" tooltips="1" connect="1" arrows="1" fold="1" page="1" pageScale="1" pageWidth="850" pageHeight="1100" background="#ffffff" math="1" shadow="0">
            <root>
                <mxCell id="0"/>
                <mxCell id="1" parent="0"/>
                <mxCell id="2" value="&lt;span style=&quot;text-align: left;&quot;&gt;&lt;font style=&quot;font-size: 16px;&quot;&gt;\(D\begin{pmatrix}-1 \\ 0\end{pmatrix}\)&lt;/font&gt;&lt;/span&gt;" style="whiteSpace=wrap;html=1;direction=south;" parent="1" vertex="1">
                    <mxGeometry x="221" y="280" width="96" height="80" as="geometry"/>
                </mxCell>
                <mxCell id="3" value="&lt;font style=&quot;font-size: 20px;&quot;&gt;\(0\)&lt;/font&gt;" style="text;html=1;align=center;verticalAlign=top;resizable=0;points=[];autosize=1;strokeColor=none;fillColor=none;" parent="1" vertex="1">
                    <mxGeometry x="140" y="300" width="60" height="40" as="geometry"/>
                </mxCell>
                <mxCell id="5" value="" style="endArrow=none;html=1;entryX=0.5;entryY=1;entryDx=0;entryDy=0;" parent="1" target="2" edge="1">
                    <mxGeometry width="50" height="50" relative="1" as="geometry">
                        <mxPoint x="185" y="320" as="sourcePoint"/>
                        <mxPoint x="725" y="880" as="targetPoint"/>
                    </mxGeometry>
                </mxCell>
                <mxCell id="9" value="&lt;div style=&quot;text-align: left;&quot;&gt;&lt;font style=&quot;font-size: 20px;&quot;&gt;\(R(\frac{\pi}{4})\)&lt;/font&gt;&lt;/div&gt;" style="whiteSpace=wrap;html=1;direction=south;" parent="1" vertex="1">
                    <mxGeometry x="365" y="280" width="96" height="80" as="geometry"/>
                </mxCell>
                <mxCell id="18" value="" style="endArrow=none;html=1;exitX=0.5;exitY=0;exitDx=0;exitDy=0;" parent="1" source="2" edge="1">
                    <mxGeometry width="50" height="50" relative="1" as="geometry">
                        <mxPoint x="317" y="319" as="sourcePoint"/>
                        <mxPoint x="365" y="320" as="targetPoint"/>
                    </mxGeometry>
                </mxCell>
                <mxCell id="19" value="&lt;div style=&quot;text-align: left;&quot;&gt;&lt;font style=&quot;font-size: 20px;&quot;&gt;\(M(\frac{\pi}{2})\)&lt;/font&gt;&lt;/div&gt;" style="whiteSpace=wrap;html=1;direction=south;" parent="1" vertex="1">
                    <mxGeometry x="658" y="280" width="96" height="80" as="geometry"/>
                </mxCell>
                <mxCell id="21" value="" style="endArrow=none;html=1;exitX=0.5;exitY=0;exitDx=0;exitDy=0;" parent="1" edge="1">
                    <mxGeometry width="50" height="50" relative="1" as="geometry">
                        <mxPoint x="754" y="319.76" as="sourcePoint"/>
                        <mxPoint x="790" y="319.76" as="targetPoint"/>
                    </mxGeometry>
                </mxCell>
                <mxCell id="22" value="" style="endArrow=none;html=1;exitX=0.5;exitY=0;exitDx=0;exitDy=0;" parent="1" edge="1">
                    <mxGeometry width="50" height="50" relative="1" as="geometry">
                        <mxPoint x="610" y="319.76" as="sourcePoint"/>
                        <mxPoint x="658" y="319.76" as="targetPoint"/>
                    </mxGeometry>
                </mxCell>
                <mxCell id="23" value="&lt;span style=&quot;text-align: left;&quot;&gt;&lt;font style=&quot;font-size: 16px;&quot;&gt;\(D\begin{pmatrix}0 \\ 1\end{pmatrix}\)&lt;/font&gt;&lt;/span&gt;" style="whiteSpace=wrap;html=1;direction=south;" vertex="1" parent="1">
                    <mxGeometry x="510" y="280" width="96" height="80" as="geometry"/>
                </mxCell>
                <mxCell id="24" value="" style="endArrow=none;html=1;exitX=0.5;exitY=0;exitDx=0;exitDy=0;" edge="1" parent="1">
                    <mxGeometry width="50" height="50" relative="1" as="geometry">
                        <mxPoint x="461" y="319.75" as="sourcePoint"/>
                        <mxPoint x="509" y="319.75" as="targetPoint"/>
                    </mxGeometry>
                </mxCell>
            </root>
        </mxGraphModel>
    </diagram>
</mxfile>
